<svg width="86" height="87" viewBox="0 0 86 87" fill="none" xmlns="http://www.w3.org/2000/svg">
<g opacity="0.64">
<path d="M2.48766 39.0663L3.22766 37.2163C3.5771 36.3735 4.21432 36.1063 4.99542 36.3941C5.79709 36.7024 6.08486 37.3602 5.73542 38.2029L5.22153 39.4979L6.96875 40.1763L6.74264 40.7313L2.48766 39.0663ZM4.74876 39.3129L5.20098 38.2029C5.4682 37.5657 5.2832 37.1752 4.78987 36.9696C4.29654 36.7641 3.90599 36.9491 3.63877 37.5863L3.18655 38.6963L4.74876 39.3129Z" fill="#FFFCF6"/>
<path d="M4.95436 33.5596L6.08491 31.7301C6.53713 30.9902 7.21546 30.8052 7.83212 31.1752C8.28434 31.4629 8.57212 31.9151 8.40767 32.4496C8.77767 32.0385 9.14767 32.1618 9.55878 32.3674C9.96989 32.5729 10.381 32.8607 10.7715 32.799L10.4015 33.3746C10.1549 33.4157 9.78489 33.0868 9.37378 32.9224C8.96267 32.7579 8.59267 32.6346 8.26378 33.1279L7.48268 34.4024L9.12711 35.4301L8.81878 35.944L4.95436 33.5596ZM7.70879 33.0663C8.01712 32.5935 8.14045 32.1001 7.58546 31.7507C7.1949 31.5246 6.80435 31.5452 6.49602 32.0179L5.69435 33.3129L7.05101 34.1351L7.70879 33.0663Z" fill="#FFFCF6"/>
<path d="M8.47001 28.3609L10.5667 26.0176L10.9572 26.367L9.27167 28.2581L10.3611 29.2242L11.9233 27.4564L12.3139 27.8059L10.7106 29.5737L11.8822 30.622L13.5883 28.7103L13.9789 29.0598L11.8617 31.4236L8.47001 28.3609Z" fill="#FFFCF6"/>
<path d="M12.5188 24.1023L13.1766 23.6089L16.6505 25.7673L15.4582 21.8617L16.116 21.3684L18.9116 24.9862L18.4388 25.3356L16.116 22.3139L17.2877 26.1989L16.8766 26.5278L13.4438 24.3695L15.7666 27.3911L15.2938 27.7406L12.5188 24.1023Z" fill="#FFFCF6"/>
<path d="M18.6025 19.9102L19.1369 19.6224L21.3158 23.6513L20.7814 23.9391L18.6025 19.9102Z" fill="#FFFCF6"/>
<path d="M26.0851 19.8302C26.4962 20.8991 26.0851 21.7213 25.0162 22.0913C23.9062 22.5024 23.0635 22.2352 22.6524 21.0841L21.6451 18.3502L22.2207 18.1447L23.2279 20.8785C23.4951 21.6391 24.1118 21.8858 24.8518 21.598C25.5712 21.3308 25.8179 20.7552 25.5301 20.0152L24.5229 17.2813L25.0985 17.0758L26.0851 19.8302Z" fill="#FFFCF6"/>
<path d="M27.9553 16.315L28.7775 16.1916L30.792 19.7683L31.6347 15.76L32.4569 15.6366L33.1558 20.1588L32.5803 20.241L32.0047 16.5L31.162 20.4672L30.6481 20.5288L28.6748 16.9933L29.2503 20.7344L28.6748 20.8166L27.9553 16.315Z" fill="#FFFCF6"/>
<path d="M38.8497 15.6583L40.967 15.9666C41.8303 16.09 42.2825 16.6244 42.1797 17.3439C42.0975 17.8783 41.7892 18.31 41.2342 18.3716C41.7481 18.5566 41.8097 18.9472 41.7686 19.3994C41.7275 19.8516 41.6453 20.3449 41.8508 20.6738L41.1725 20.5711C41.0286 20.3449 41.1931 19.8927 41.1725 19.42C41.1725 18.9677 41.1108 18.5772 40.5353 18.495L39.0553 18.2894L38.7675 20.2216L38.1509 20.1394L38.8497 15.6583ZM40.412 18.0016C40.9875 18.0839 41.4808 18.0016 41.5631 17.3439C41.6247 16.9122 41.4192 16.5422 40.8847 16.46L39.3842 16.2339L39.1581 17.8166L40.412 18.0016Z" fill="#FFFCF6"/>
<path d="M46.9299 17.3212C48.3071 17.794 48.636 19.1095 48.2249 20.3017C47.8344 21.4734 46.7655 22.3367 45.3883 21.864C44.0111 21.3912 43.6822 20.0756 44.0933 18.8834C44.4633 17.6912 45.5527 16.8484 46.9299 17.3212ZM45.5322 21.3501C46.5805 21.6995 47.341 20.939 47.6288 20.0756C47.9166 19.2123 47.7932 18.1434 46.7449 17.794C45.6966 17.4445 44.936 18.2051 44.6483 19.0684C44.3605 19.9318 44.4838 21.0006 45.5322 21.3501Z" fill="#FFFCF6"/>
<path d="M53.1351 20.1589C54.389 20.8784 54.4506 22.2556 53.834 23.3245C53.2173 24.3933 52.0045 25.0306 50.7301 24.2906C49.4557 23.5506 49.4145 22.1939 50.0312 21.125C50.689 20.0561 51.9018 19.4189 53.1351 20.1589ZM50.9973 23.8589C51.9634 24.4139 52.8473 23.8178 53.2995 23.0367C53.7723 22.235 53.834 21.1867 52.8884 20.6111C51.9223 20.0561 51.0384 20.6522 50.5862 21.4334C50.1134 22.235 50.0518 23.2833 50.9973 23.8589Z" fill="#FFFCF6"/>
<path d="M57.2267 22.9765L57.8639 23.5315L56.3633 27.3342L60.0017 25.4637L60.6389 26.0187L57.5761 29.4103L57.1444 29.0198L59.6933 26.1831L56.0961 28.0536L55.7056 27.7042L57.1856 23.922L54.6367 26.7587L54.205 26.3681L57.2267 22.9765Z" fill="#FFFCF6"/>
<path d="M63.1066 31.1573C63.5999 30.7051 63.5382 30.1912 63.1682 29.6979C62.8599 29.3073 62.4077 28.9784 61.9144 29.3484C61.4621 29.6773 61.8321 30.3351 62.1405 31.0134C62.4488 31.6917 62.6955 32.4317 61.9555 32.9662C61.1744 33.5417 60.2905 33.0278 59.7971 32.3701C59.1805 31.5479 59.0572 30.5612 59.941 29.8829L60.2905 30.3556C59.6738 30.8079 59.7971 31.5479 60.2083 32.0823C60.5371 32.5345 61.0305 32.9045 61.5649 32.4934C62.0582 32.1234 61.7294 31.4656 61.421 30.7873C61.1127 30.109 60.8455 29.3895 61.5032 28.8962C62.2432 28.3206 63.086 28.7523 63.5793 29.4101C64.1549 30.1501 64.2166 30.9929 63.4355 31.6095L63.1066 31.1573Z" fill="#FFFCF6"/>
<path d="M62.5289 35.017L62.8577 35.6336L62.2411 35.9625L61.9122 35.3459L62.5289 35.017Z" fill="#FFFCF6"/>
<path d="M68.759 39.4383L69.2113 41.0416C69.314 41.4322 69.4579 41.9461 69.3757 42.2339C69.2935 42.5628 69.0468 42.8916 68.5946 43.015C68.1218 43.1589 67.7107 42.9944 67.4229 42.6244C67.464 43.2 67.1352 43.6111 66.5802 43.755C65.9429 43.94 65.1824 43.6316 64.9357 42.7683L64.3396 40.6511L68.759 39.4383ZM65.0385 41.1033L65.4496 42.5833C65.5935 43.0972 65.9841 43.3233 66.4774 43.2C67.0529 43.0355 67.0735 42.5216 66.9502 42.0283L66.5596 40.6922L65.0385 41.1033ZM67.0324 40.5483L67.3407 41.72C67.5257 42.3983 67.834 42.5833 68.2863 42.46C68.9029 42.2955 68.8618 41.8433 68.7179 41.3294L68.4096 40.1578L67.0324 40.5483Z" fill="#FFFCF6"/>
<path d="M70.3188 46.7951L70.3805 47.4734L66.0022 49.6728L65.9405 48.9945L67.2561 48.3779L67.0711 46.4662L65.6528 46.0757L65.5911 45.4384L70.3188 46.7951ZM67.6055 46.5895L67.7494 48.1312L69.7844 47.1651L67.6055 46.5895Z" fill="#FFFCF6"/>
<path d="M70.5464 51.586L70.4847 52.2232L66.5998 54.2993L70.2792 54.6076L70.2381 55.1832L65.6748 54.8132L65.7159 54.1554L69.5597 52.0793L65.9214 51.771L65.9625 51.1954L70.5464 51.586Z" fill="#FFFCF6"/>
<path d="M69.7243 58.0826L69.5598 58.6582L67.3604 58.0621L68.9637 60.8987L68.7582 61.6387L67.4837 59.2954L64.3387 60.5082L64.5443 59.7682L67.2165 58.7815L66.7437 57.8565L65.2021 57.4249L65.3665 56.8493L69.7243 58.0826Z" fill="#FFFCF6"/>
<path d="M66.3944 67.0457L66.0861 67.5596L64.4005 66.5318L63.1672 68.5874L64.8527 69.6151L64.5444 70.129L60.6389 67.7446L60.9472 67.2307L62.7355 68.3201L63.9689 66.2646L62.1805 65.1752L62.4889 64.6613L66.3944 67.0457Z" fill="#FFFCF6"/>
<path d="M61.5428 74.0331C60.5562 75.1019 59.2201 74.8758 58.2951 74.033C57.3701 73.1903 57.0206 71.8953 57.9867 70.8058C58.9528 69.7164 60.3095 69.9631 61.2345 70.8058C62.1595 71.6486 62.5089 72.9436 61.5428 74.0331ZM58.3773 71.1553C57.6373 71.9775 58.0278 72.9847 58.7062 73.5808C59.3845 74.1769 60.4123 74.5058 61.1523 73.6836C61.8923 72.8614 61.5017 71.8542 60.8234 71.2581C60.145 70.662 59.1173 70.3331 58.3773 71.1553Z" fill="#FFFCF6"/>
<path d="M56.8769 77.547L58.0897 76.622L58.398 77.0126L55.4997 79.2531L55.1914 78.8626L56.4042 77.9376L53.9375 74.7309L54.4308 74.361L56.8769 77.547Z" fill="#FFFCF6"/>
<path d="M53.5068 80.5088L50.7318 82.0094L50.4851 81.5572L52.7257 80.3444L52.0268 79.07L49.9507 80.2005L49.704 79.7483L51.7801 78.6177L51.0196 77.2405L48.7585 78.4739L48.5118 78.0216L51.3074 76.5005L53.5068 80.5088Z" fill="#FFFCF6"/>
<path d="M48.3462 83.0342L47.7707 83.2397L46.414 79.4164L44.1324 80.218L43.9679 79.7247L46.8251 78.7175L48.3462 83.0342Z" fill="#FFFCF6"/>
</g>
<path d="M37.0171 42.2753C37.105 41.6246 37.7443 41.199 38.3785 41.369C38.9704 41.5276 39.2886 42.1699 39.056 42.7368L35.923 50.3736L37.0171 42.2753Z" fill="#FCD043"/>
<path d="M44.0211 51.4666C44.6718 51.5545 45.0974 52.1938 44.9274 52.828C44.7688 53.4199 44.1265 53.738 43.5595 53.5054L35.9228 50.3725L44.0211 51.4666Z" fill="#FCD043"/>
<path d="M42.4404 45.4509C42.9627 45.053 43.7157 45.2041 44.044 45.7727C44.3504 46.3034 44.1211 46.9825 43.5558 47.219L35.9404 50.4036L42.4404 45.4509Z" fill="#FCD043"/>
<path d="M40.8943 56.9063C41.2922 57.4285 41.1411 58.1815 40.5725 58.5098C40.0418 58.8162 39.3627 58.5869 39.1263 58.0216L35.9416 50.4063L40.8943 56.9063Z" fill="#FCD043"/>
<path d="M34.8276 58.4696C34.7397 59.1203 34.1004 59.5458 33.4662 59.3759C32.8743 59.2173 32.5562 58.575 32.7887 58.008L35.9217 50.3713L34.8276 58.4696Z" fill="#FCD043"/>
<path d="M27.8236 49.2753C27.173 49.1874 26.7474 48.5482 26.9173 47.914C27.0759 47.322 27.7182 47.0039 28.2852 47.2365L35.9219 50.3695L27.8236 49.2753Z" fill="#FCD043"/>
<path d="M29.4399 55.3589C28.9177 55.7568 28.1647 55.6057 27.8364 55.0371C27.53 54.5064 27.7593 53.8273 28.3246 53.5909L35.9399 50.4062L29.4399 55.3589Z" fill="#FCD043"/>
<path d="M30.9897 43.9052C30.5918 43.383 30.7429 42.63 31.3115 42.3017C31.8422 41.9953 32.5214 42.2246 32.7578 42.7899L35.9424 50.4053L30.9897 43.9052Z" fill="#FCD043"/>
</svg>
