<svg width="120" height="120" viewBox="0 0 120 120" fill="none" xmlns="http://www.w3.org/2000/svg">
<path d="M60 0L95.2671 11.459L117.063 41.459V78.541L95.2671 108.541L60 120L24.7329 108.541L2.93661 78.541V41.459L24.7329 11.459L60 0Z" fill="#FCD043"/>
<path d="M27.9576 59.222H30.8136C31.9056 59.222 32.8716 59.432 32.8716 60.706C32.8716 62.526 31.1076 62.68 30.4496 62.68H27.2296L27.9576 59.222ZM25.7176 63.8H30.6596C32.6336 63.8 34.2016 62.624 34.2016 60.706C34.2016 59.642 33.6136 58.9 32.7036 58.634V58.606C33.8796 58.424 34.6076 57.304 34.6076 56.198C34.6076 54.686 33.7816 53.804 31.8216 53.804H27.8036L25.7176 63.8ZM28.8536 54.924H31.3176C32.1436 54.924 33.2776 55.022 33.2776 56.198C33.2776 57.444 32.5356 58.102 31.1496 58.102H28.1816L28.8536 54.924ZM36.6316 60.93C36.6316 59.432 37.5836 57.444 39.4036 57.444C40.7056 57.444 41.3076 58.354 41.3076 59.488C41.3076 60.916 40.3556 62.918 38.6196 62.918C37.3176 62.918 36.6316 62.12 36.6316 60.93ZM35.4416 60.944C35.4416 62.694 36.5896 63.968 38.4936 63.968C41.0276 63.968 42.4976 61.756 42.4976 59.39C42.4976 57.458 41.4196 56.394 39.4876 56.394C36.9536 56.394 35.4416 58.578 35.4416 60.944ZM44.6707 60.93C44.6707 59.432 45.6227 57.444 47.4427 57.444C48.7447 57.444 49.3467 58.354 49.3467 59.488C49.3467 60.916 48.3947 62.918 46.6587 62.918C45.3567 62.918 44.6707 62.12 44.6707 60.93ZM43.4807 60.944C43.4807 62.694 44.6287 63.968 46.5327 63.968C49.0667 63.968 50.5367 61.756 50.5367 59.39C50.5367 57.458 49.4587 56.394 47.5267 56.394C44.9927 56.394 43.4807 58.578 43.4807 60.944ZM51.2117 63.8H52.4017L52.9477 61.224L54.3757 59.95L55.7897 63.8H57.1197L55.3277 59.236L58.4777 56.562H56.9237L53.2837 59.712L53.2557 59.684L54.5017 53.804H53.3257L51.2117 63.8ZM61.8485 63.8H63.0385L63.7245 60.594C63.8365 60.048 64.0045 59.362 64.3265 58.9C64.7045 58.326 65.2085 57.892 65.8665 57.724C66.1465 57.654 66.2865 57.654 66.5805 57.654C66.6925 57.654 66.8185 57.654 66.9305 57.668L67.2105 56.394C67.0705 56.366 66.9305 56.394 66.7905 56.394C65.5725 56.394 64.7185 57.122 64.1585 58.116H64.1305L64.4805 56.562H63.3605L61.8485 63.8ZM68.0086 60.93C68.0086 59.432 68.9606 57.444 70.7806 57.444C72.0826 57.444 72.6846 58.354 72.6846 59.488C72.6846 60.916 71.7326 62.918 69.9966 62.918C68.6946 62.918 68.0086 62.12 68.0086 60.93ZM66.8186 60.944C66.8186 62.694 67.9666 63.968 69.8706 63.968C72.4046 63.968 73.8746 61.756 73.8746 59.39C73.8746 57.458 72.7966 56.394 70.8646 56.394C68.3306 56.394 66.8186 58.578 66.8186 60.944ZM76.0476 60.93C76.0476 59.432 76.9996 57.444 78.8196 57.444C80.1216 57.444 80.7236 58.354 80.7236 59.488C80.7236 60.916 79.7716 62.918 78.0356 62.918C76.7336 62.918 76.0476 62.12 76.0476 60.93ZM74.8576 60.944C74.8576 62.694 76.0056 63.968 77.9096 63.968C80.4436 63.968 81.9136 61.756 81.9136 59.39C81.9136 57.458 80.8356 56.394 78.9036 56.394C76.3696 56.394 74.8576 58.578 74.8576 60.944ZM82.5887 63.8H83.7787L84.5907 60.006C84.7447 59.292 84.8567 58.858 85.3607 58.368C85.7807 57.892 86.4807 57.444 87.1387 57.444C87.7827 57.444 88.1467 57.794 88.1467 58.396C88.1467 58.564 88.0487 59.11 87.9227 59.67L87.0547 63.8H88.2447L89.0427 60.062C89.1687 59.446 89.3227 58.858 89.7147 58.438C90.1207 57.92 90.8627 57.444 91.5347 57.444C92.1647 57.444 92.6407 57.864 92.6407 58.424C92.6407 58.634 92.5847 58.984 92.5287 59.208L91.5207 63.8H92.7107L93.6207 59.46C93.7187 59.054 93.8307 58.438 93.8307 58.018C93.8307 56.842 92.8367 56.394 91.8147 56.394C90.8487 56.394 89.8967 56.926 89.3367 57.696C89.1267 56.758 88.4267 56.394 87.5167 56.394C86.5227 56.394 85.6127 56.912 84.9967 57.668L84.9687 57.64L85.2347 56.562H84.1287L82.5887 63.8Z" fill="#1B3B36"/>
<path d="M27.9576 59.222H30.8136C31.9056 59.222 32.8716 59.432 32.8716 60.706C32.8716 62.526 31.1076 62.68 30.4496 62.68H27.2296L27.9576 59.222ZM25.7176 63.8H30.6596C32.6336 63.8 34.2016 62.624 34.2016 60.706C34.2016 59.642 33.6136 58.9 32.7036 58.634V58.606C33.8796 58.424 34.6076 57.304 34.6076 56.198C34.6076 54.686 33.7816 53.804 31.8216 53.804H27.8036L25.7176 63.8ZM28.8536 54.924H31.3176C32.1436 54.924 33.2776 55.022 33.2776 56.198C33.2776 57.444 32.5356 58.102 31.1496 58.102H28.1816L28.8536 54.924ZM36.6316 60.93C36.6316 59.432 37.5836 57.444 39.4036 57.444C40.7056 57.444 41.3076 58.354 41.3076 59.488C41.3076 60.916 40.3556 62.918 38.6196 62.918C37.3176 62.918 36.6316 62.12 36.6316 60.93ZM35.4416 60.944C35.4416 62.694 36.5896 63.968 38.4936 63.968C41.0276 63.968 42.4976 61.756 42.4976 59.39C42.4976 57.458 41.4196 56.394 39.4876 56.394C36.9536 56.394 35.4416 58.578 35.4416 60.944ZM44.6707 60.93C44.6707 59.432 45.6227 57.444 47.4427 57.444C48.7447 57.444 49.3467 58.354 49.3467 59.488C49.3467 60.916 48.3947 62.918 46.6587 62.918C45.3567 62.918 44.6707 62.12 44.6707 60.93ZM43.4807 60.944C43.4807 62.694 44.6287 63.968 46.5327 63.968C49.0667 63.968 50.5367 61.756 50.5367 59.39C50.5367 57.458 49.4587 56.394 47.5267 56.394C44.9927 56.394 43.4807 58.578 43.4807 60.944ZM51.2117 63.8H52.4017L52.9477 61.224L54.3757 59.95L55.7897 63.8H57.1197L55.3277 59.236L58.4777 56.562H56.9237L53.2837 59.712L53.2557 59.684L54.5017 53.804H53.3257L51.2117 63.8ZM61.8485 63.8H63.0385L63.7245 60.594C63.8365 60.048 64.0045 59.362 64.3265 58.9C64.7045 58.326 65.2085 57.892 65.8665 57.724C66.1465 57.654 66.2865 57.654 66.5805 57.654C66.6925 57.654 66.8185 57.654 66.9305 57.668L67.2105 56.394C67.0705 56.366 66.9305 56.394 66.7905 56.394C65.5725 56.394 64.7185 57.122 64.1585 58.116H64.1305L64.4805 56.562H63.3605L61.8485 63.8ZM68.0086 60.93C68.0086 59.432 68.9606 57.444 70.7806 57.444C72.0826 57.444 72.6846 58.354 72.6846 59.488C72.6846 60.916 71.7326 62.918 69.9966 62.918C68.6946 62.918 68.0086 62.12 68.0086 60.93ZM66.8186 60.944C66.8186 62.694 67.9666 63.968 69.8706 63.968C72.4046 63.968 73.8746 61.756 73.8746 59.39C73.8746 57.458 72.7966 56.394 70.8646 56.394C68.3306 56.394 66.8186 58.578 66.8186 60.944ZM76.0476 60.93C76.0476 59.432 76.9996 57.444 78.8196 57.444C80.1216 57.444 80.7236 58.354 80.7236 59.488C80.7236 60.916 79.7716 62.918 78.0356 62.918C76.7336 62.918 76.0476 62.12 76.0476 60.93ZM74.8576 60.944C74.8576 62.694 76.0056 63.968 77.9096 63.968C80.4436 63.968 81.9136 61.756 81.9136 59.39C81.9136 57.458 80.8356 56.394 78.9036 56.394C76.3696 56.394 74.8576 58.578 74.8576 60.944ZM82.5887 63.8H83.7787L84.5907 60.006C84.7447 59.292 84.8567 58.858 85.3607 58.368C85.7807 57.892 86.4807 57.444 87.1387 57.444C87.7827 57.444 88.1467 57.794 88.1467 58.396C88.1467 58.564 88.0487 59.11 87.9227 59.67L87.0547 63.8H88.2447L89.0427 60.062C89.1687 59.446 89.3227 58.858 89.7147 58.438C90.1207 57.92 90.8627 57.444 91.5347 57.444C92.1647 57.444 92.6407 57.864 92.6407 58.424C92.6407 58.634 92.5847 58.984 92.5287 59.208L91.5207 63.8H92.7107L93.6207 59.46C93.7187 59.054 93.8307 58.438 93.8307 58.018C93.8307 56.842 92.8367 56.394 91.8147 56.394C90.8487 56.394 89.8967 56.926 89.3367 57.696C89.1267 56.758 88.4267 56.394 87.5167 56.394C86.5227 56.394 85.6127 56.912 84.9967 57.668L84.9687 57.64L85.2347 56.562H84.1287L82.5887 63.8Z" fill="black" fill-opacity="0.2"/>
</svg>
