<svg width="82" height="80" viewBox="0 0 82 80" fill="none" xmlns="http://www.w3.org/2000/svg">
<path d="M23.4622 3.97128L25.5587 3.07015C26.5237 2.66965 27.2558 2.97003 27.6552 3.83778C28.0545 4.73891 27.755 5.50653 26.7899 5.90703L25.3257 6.54116L26.1909 8.51029L25.5587 8.77729L23.4622 3.97128ZM25.0928 5.97378L26.3573 5.43978C27.0894 5.13941 27.2558 4.67216 27.0229 4.10478C26.7899 3.53741 26.3241 3.37053 25.5919 3.67091L24.3274 4.20491L25.0928 5.97378Z" fill="#1B3B36"/>
<path d="M23.4622 3.97128L25.5587 3.07015C26.5237 2.66965 27.2558 2.97003 27.6552 3.83778C28.0545 4.73891 27.755 5.50653 26.7899 5.90703L25.3257 6.54116L26.1909 8.51029L25.5587 8.77729L23.4622 3.97128ZM25.0928 5.97378L26.3573 5.43978C27.0894 5.13941 27.2558 4.67216 27.0229 4.10478C26.7899 3.53741 26.3241 3.37053 25.5919 3.67091L24.3274 4.20491L25.0928 5.97378Z" fill="black" fill-opacity="0.2"/>
<path d="M33.0798 0.700778L35.5091 0.333652C36.4742 0.200152 37.173 0.634028 37.2728 1.4684C37.3727 2.10253 37.173 2.63653 36.574 2.90353C37.2063 2.93691 37.3727 3.33741 37.5058 3.83803C37.6389 4.33866 37.6722 4.90603 38.0382 5.20641L37.2728 5.30653C37.0399 5.13966 37.0732 4.53891 36.9068 4.07166C36.7737 3.57103 36.574 3.17053 35.9085 3.27066L34.2446 3.53766L34.5773 5.74041L33.8785 5.84054L33.0798 0.700778ZM35.5424 2.77003C36.1747 2.66991 36.7071 2.43628 36.6073 1.66865C36.5407 1.16803 36.208 0.834278 35.5424 0.934403L33.8452 1.2014L34.1114 3.00366L35.5424 2.77003Z" fill="#1B3B36"/>
<path d="M33.0798 0.700778L35.5091 0.333652C36.4742 0.200152 37.173 0.634028 37.2728 1.4684C37.3727 2.10253 37.173 2.63653 36.574 2.90353C37.2063 2.93691 37.3727 3.33741 37.5058 3.83803C37.6389 4.33866 37.6722 4.90603 38.0382 5.20641L37.2728 5.30653C37.0399 5.13966 37.0732 4.53891 36.9068 4.07166C36.7737 3.57103 36.574 3.17053 35.9085 3.27066L34.2446 3.53766L34.5773 5.74041L33.8785 5.84054L33.0798 0.700778ZM35.5424 2.77003C36.1747 2.66991 36.7071 2.43628 36.6073 1.66865C36.5407 1.16803 36.208 0.834278 35.5424 0.934403L33.8452 1.2014L34.1114 3.00366L35.5424 2.77003Z" fill="black" fill-opacity="0.2"/>
<path d="M43.4624 0L47.0564 0.367126L46.9898 0.967877L44.0947 0.667501L43.9283 2.33625L46.6238 2.60325L46.5572 3.20401L43.8617 2.937L43.662 4.73926L46.5905 5.00626L46.5239 5.60701L42.9299 5.20651L43.4624 0Z" fill="#1B3B36"/>
<path d="M43.4624 0L47.0564 0.367126L46.9898 0.967877L44.0947 0.667501L43.9283 2.33625L46.6238 2.60325L46.5572 3.20401L43.8617 2.937L43.662 4.73926L46.5905 5.00626L46.5239 5.60701L42.9299 5.20651L43.4624 0Z" fill="black" fill-opacity="0.2"/>
<path d="M53.2797 1.80176L54.1782 2.16888L54.1117 6.87477L57.2731 3.40376L58.1716 3.77089L56.2415 8.64365L55.5759 8.34327L57.1732 4.27151L54.0451 7.74252L53.4794 7.50889L53.5459 2.83638L51.9486 6.90814L51.3496 6.67452L53.2797 1.80176Z" fill="#1B3B36"/>
<path d="M53.2797 1.80176L54.1782 2.16888L54.1117 6.87477L57.2731 3.40376L58.1716 3.77089L56.2415 8.64365L55.5759 8.34327L57.1732 4.27151L54.0451 7.74252L53.4794 7.50889L53.5459 2.83638L51.9486 6.90814L51.3496 6.67452L53.2797 1.80176Z" fill="black" fill-opacity="0.2"/>
<path d="M63.7285 7.0752L64.2942 7.4757L61.2659 11.7477L60.7002 11.3472L63.7285 7.0752Z" fill="#1B3B36"/>
<path d="M63.7285 7.0752L64.2942 7.4757L61.2659 11.7477L60.7002 11.3472L63.7285 7.0752Z" fill="black" fill-opacity="0.2"/>
<path d="M69.5864 16.954C68.6213 17.8551 67.5897 17.755 66.7245 16.7871C65.8259 15.7859 65.7594 14.7846 66.791 13.8501L69.2536 11.614L69.7195 12.1146L67.2236 14.3508C66.5248 14.9849 66.5248 15.7191 67.1238 16.3866C67.7228 17.0541 68.4216 17.0541 69.0872 16.4534L71.5497 14.2173L72.0156 14.7179L69.5864 16.954Z" fill="#1B3B36"/>
<path d="M69.5864 16.954C68.6213 17.8551 67.5897 17.755 66.7245 16.7871C65.8259 15.7859 65.7594 14.7846 66.791 13.8501L69.2536 11.614L69.7195 12.1146L67.2236 14.3508C66.5248 14.9849 66.5248 15.7191 67.1238 16.3866C67.7228 17.0541 68.4216 17.0541 69.0872 16.4534L71.5497 14.2173L72.0156 14.7179L69.5864 16.954Z" fill="black" fill-opacity="0.2"/>
<path d="M75.8433 20.2258L76.2759 21.0936L73.048 24.4978L77.7069 24.064L78.1395 24.9317L73.4473 27.2346L73.1478 26.6338L77.0746 24.7315L72.449 25.1653L72.1827 24.6313L75.3774 21.2605L71.4506 23.1628L71.1511 22.5621L75.8433 20.2258Z" fill="#1B3B36"/>
<path d="M75.8433 20.2258L76.2759 21.0936L73.048 24.4978L77.7069 24.064L78.1395 24.9317L73.4473 27.2346L73.1478 26.6338L77.0746 24.7315L72.449 25.1653L72.1827 24.6313L75.3774 21.2605L71.4506 23.1628L71.1511 22.5621L75.8433 20.2258Z" fill="black" fill-opacity="0.2"/>
<path d="M81.0013 38.4817L80.968 40.9514C80.968 41.9193 80.4023 42.5201 79.5704 42.5201C78.9381 42.5201 78.4389 42.2197 78.2725 41.5855C78.1394 42.1863 77.7068 42.3198 77.1744 42.3532C76.6752 42.3866 76.0762 42.3532 75.7434 42.6536V41.8859C75.9431 41.6857 76.5088 41.8192 77.0412 41.719C77.5404 41.6523 77.973 41.5522 78.0063 40.8513L78.0396 39.1492L75.81 39.1158V38.4149L81.0013 38.4817ZM78.572 40.5843C78.572 41.2518 78.7051 41.7858 79.4705 41.8192C79.9697 41.8192 80.369 41.5522 80.369 40.8847L80.4023 39.1492L78.572 39.1158V40.5843Z" fill="#1B3B36"/>
<path d="M81.0013 38.4817L80.968 40.9514C80.968 41.9193 80.4023 42.5201 79.5704 42.5201C78.9381 42.5201 78.4389 42.2197 78.2725 41.5855C78.1394 42.1863 77.7068 42.3198 77.1744 42.3532C76.6752 42.3866 76.0762 42.3532 75.7434 42.6536V41.8859C75.9431 41.6857 76.5088 41.8192 77.0412 41.719C77.5404 41.6523 77.973 41.5522 78.0063 40.8513L78.0396 39.1492L75.81 39.1158V38.4149L81.0013 38.4817ZM78.572 40.5843C78.572 41.2518 78.7051 41.7858 79.4705 41.8192C79.9697 41.8192 80.369 41.5522 80.369 40.8847L80.4023 39.1492L78.572 39.1158V40.5843Z" fill="black" fill-opacity="0.2"/>
<path d="M79.6022 51.0641C79.1363 52.6661 77.6388 53.1333 76.2744 52.7328C74.91 52.3323 73.8784 51.1642 74.311 49.5622C74.7769 47.9602 76.2744 47.493 77.6388 47.8935C79.0032 48.294 80.0348 49.4621 79.6022 51.0641ZM74.8768 49.7291C74.544 50.964 75.4425 51.765 76.4408 52.0653C77.4392 52.3657 78.6704 52.1321 79.0032 50.8972C79.336 49.6623 78.4375 48.8613 77.4392 48.561C76.4408 48.294 75.2428 48.4942 74.8768 49.7291Z" fill="#1B3B36"/>
<path d="M79.6022 51.0641C79.1363 52.6661 77.6388 53.1333 76.2744 52.7328C74.91 52.3323 73.8784 51.1642 74.311 49.5622C74.7769 47.9602 76.2744 47.493 77.6388 47.8935C79.0032 48.294 80.0348 49.4621 79.6022 51.0641ZM74.8768 49.7291C74.544 50.964 75.4425 51.765 76.4408 52.0653C77.4392 52.3657 78.6704 52.1321 79.0032 50.8972C79.336 49.6623 78.4375 48.8613 77.4392 48.561C76.4408 48.294 75.2428 48.4942 74.8768 49.7291Z" fill="black" fill-opacity="0.2"/>
<path d="M75.111 61.243C74.2458 62.6448 72.6817 62.6781 71.4504 61.9439C70.2524 61.2096 69.5536 59.7745 70.4521 58.3728C71.3173 56.971 72.8814 56.9376 74.1127 57.6719C75.3107 58.4061 76.0095 59.8079 75.111 61.243ZM70.9513 58.6731C70.2857 59.7745 70.918 60.8091 71.8165 61.3431C72.715 61.9105 73.913 62.0106 74.6118 60.9426C75.2774 59.8413 74.6451 58.8066 73.7466 58.2726C72.8481 57.7053 71.6168 57.5718 70.9513 58.6731Z" fill="#1B3B36"/>
<path d="M75.111 61.243C74.2458 62.6448 72.6817 62.6781 71.4504 61.9439C70.2524 61.2096 69.5536 59.7745 70.4521 58.3728C71.3173 56.971 72.8814 56.9376 74.1127 57.6719C75.3107 58.4061 76.0095 59.8079 75.111 61.243ZM70.9513 58.6731C70.2857 59.7745 70.918 60.8091 71.8165 61.3431C72.715 61.9105 73.913 62.0106 74.6118 60.9426C75.2774 59.8413 74.6451 58.8066 73.7466 58.2726C72.8481 57.7053 71.6168 57.5718 70.9513 58.6731Z" fill="black" fill-opacity="0.2"/>
<path d="M69.5851 68.2523L68.8863 68.8864L64.7266 66.7171L66.4237 71.1226L65.7249 71.7567L62.2307 67.8518L62.7299 67.4179L65.6251 70.6553L63.9279 66.3166L64.3605 65.9161L68.487 68.0854L65.5918 64.8481L66.091 64.4142L69.5851 68.2523Z" fill="#1B3B36"/>
<path d="M69.5851 68.2523L68.8863 68.8864L64.7266 66.7171L66.4237 71.1226L65.7249 71.7567L62.2307 67.8518L62.7299 67.4179L65.6251 70.6553L63.9279 66.3166L64.3605 65.9161L68.487 68.0854L65.5918 64.8481L66.091 64.4142L69.5851 68.2523Z" fill="black" fill-opacity="0.2"/>
<path d="M56.7081 75.3279C57.1074 75.9621 57.7064 76.0288 58.3387 75.7284C58.8711 75.4614 59.3037 75.0276 59.0042 74.3934C58.738 73.8261 57.9393 74.0931 57.0741 74.2933C56.2422 74.4936 55.377 74.5937 54.9111 73.6592C54.4119 72.6579 55.2106 71.7902 56.0758 71.3563C57.1407 70.8557 58.2721 70.9224 58.8379 72.0572L58.2388 72.3576C57.8395 71.5566 57.0408 71.5565 56.3087 71.8903C55.743 72.1573 55.2106 72.6579 55.5433 73.3254C55.8428 73.9596 56.6748 73.7259 57.5067 73.5257C58.3387 73.3254 59.2039 73.1586 59.6032 74.0263C60.0691 74.9942 59.4369 75.8286 58.5716 76.2291C57.6066 76.6963 56.6748 76.5962 56.1091 75.5949L56.7081 75.3279Z" fill="#1B3B36"/>
<path d="M56.7081 75.3279C57.1074 75.9621 57.7064 76.0288 58.3387 75.7284C58.8711 75.4614 59.3037 75.0276 59.0042 74.3934C58.738 73.8261 57.9393 74.0931 57.0741 74.2933C56.2422 74.4936 55.377 74.5937 54.9111 73.6592C54.4119 72.6579 55.2106 71.7902 56.0758 71.3563C57.1407 70.8557 58.2721 70.9224 58.8379 72.0572L58.2388 72.3576C57.8395 71.5566 57.0408 71.5565 56.3087 71.8903C55.743 72.1573 55.2106 72.6579 55.5433 73.3254C55.8428 73.9596 56.6748 73.7259 57.5067 73.5257C58.3387 73.3254 59.2039 73.1586 59.6032 74.0263C60.0691 74.9942 59.4369 75.8286 58.5716 76.2291C57.6066 76.6963 56.6748 76.5962 56.1091 75.5949L56.7081 75.3279Z" fill="black" fill-opacity="0.2"/>
<path d="M49.7181 74.6931L48.9194 74.8933L48.7197 74.0923L49.5184 73.8921L49.7181 74.6931Z" fill="#1B3B36"/>
<path d="M49.7181 74.6931L48.9194 74.8933L48.7197 74.0923L49.5184 73.8921L49.7181 74.6931Z" fill="black" fill-opacity="0.2"/>
<path d="M36.4084 80L34.5449 79.6996C34.079 79.6329 33.48 79.5328 33.2137 79.2991C32.9142 79.0321 32.7146 78.6316 32.7811 78.131C32.881 77.5636 33.2137 77.2299 33.7462 77.0964C33.1472 76.8627 32.8477 76.3287 32.9808 75.6946C33.1139 74.927 33.7795 74.2929 34.7778 74.4597L37.2736 74.8602L36.4084 80ZM36.1089 77.6638L34.7445 77.4301C33.9791 77.2966 33.6131 77.5302 33.5132 78.0643C33.3801 78.7651 33.8793 78.9654 34.4783 79.0655L35.8427 79.2991L36.1089 77.6638ZM36.475 75.2941L34.7445 75.0271C34.1455 74.927 33.7129 75.2274 33.6131 75.7947C33.5132 76.4622 34.0124 76.7292 34.5781 76.8294L36.1422 77.0964L36.475 75.2941Z" fill="#1B3B36"/>
<path d="M36.4084 80L34.5449 79.6996C34.079 79.6329 33.48 79.5328 33.2137 79.2991C32.9142 79.0321 32.7146 78.6316 32.7811 78.131C32.881 77.5636 33.2137 77.2299 33.7462 77.0964C33.1472 76.8627 32.8477 76.3287 32.9808 75.6946C33.1139 74.927 33.7795 74.2929 34.7778 74.4597L37.2736 74.8602L36.4084 80ZM36.1089 77.6638L34.7445 77.4301C33.9791 77.2966 33.6131 77.5302 33.5132 78.0643C33.3801 78.7651 33.8793 78.9654 34.4783 79.0655L35.8427 79.2991L36.1089 77.6638ZM36.475 75.2941L34.7445 75.0271C34.1455 74.927 33.7129 75.2274 33.6131 75.7947C33.5132 76.4622 34.0124 76.7292 34.5781 76.8294L36.1422 77.0964L36.475 75.2941Z" fill="black" fill-opacity="0.2"/>
<path d="M24.9925 76.8631L24.2937 76.5627L24.5599 70.9557L25.2588 71.2561L25.1256 72.9248L27.1556 73.8259L28.3203 72.6244L28.9859 72.9248L24.9925 76.8631ZM26.723 74.2598L25.0924 73.5256L24.8927 76.1288L26.723 74.2598Z" fill="#1B3B36"/>
<path d="M24.9925 76.8631L24.2937 76.5627L24.5599 70.9557L25.2588 71.2561L25.1256 72.9248L27.1556 73.8259L28.3203 72.6244L28.9859 72.9248L24.9925 76.8631ZM26.723 74.2598L25.0924 73.5256L24.8927 76.1288L26.723 74.2598Z" fill="black" fill-opacity="0.2"/>
<path d="M17.3741 72.5573L16.8084 72.0901L17.3408 67.0505L14.6786 70.3546L14.1794 69.9541L17.474 65.8823L18.073 66.3496L17.5405 71.3558L20.1695 68.0851L20.6686 68.4856L17.3741 72.5573Z" fill="#1B3B36"/>
<path d="M17.3741 72.5573L16.8084 72.0901L17.3408 67.0505L14.6786 70.3546L14.1794 69.9541L17.474 65.8823L18.073 66.3496L17.5405 71.3558L20.1695 68.0851L20.6686 68.4856L17.3741 72.5573Z" fill="black" fill-opacity="0.2"/>
<path d="M9.65136 65.0814L9.25202 64.514L11.3485 62.9788L7.68796 62.3446L7.15552 61.6104L10.1505 62.1778L11.3485 58.4731L11.8477 59.174L10.8161 62.2779L11.9808 62.5115L13.4783 61.4435L13.8776 62.0109L9.65136 65.0814Z" fill="#1B3B36"/>
<path d="M9.65136 65.0814L9.25202 64.514L11.3485 62.9788L7.68796 62.3446L7.15552 61.6104L10.1505 62.1778L11.3485 58.4731L11.8477 59.174L10.8161 62.2779L11.9808 62.5115L13.4783 61.4435L13.8776 62.0109L9.65136 65.0814Z" fill="black" fill-opacity="0.2"/>
<path d="M2.03199 49.4618L1.89888 48.7609L4.09522 48.3604L3.59605 45.657L1.39971 46.0575L1.2666 45.3567L6.39139 44.3888L6.52451 45.0897L4.16178 45.5235L4.66094 48.2269L7.02367 47.793L7.15678 48.4939L2.03199 49.4618Z" fill="#1B3B36"/>
<path d="M2.03199 49.4618L1.89888 48.7609L4.09522 48.3604L3.59605 45.657L1.39971 46.0575L1.2666 45.3567L6.39139 44.3888L6.52451 45.0897L4.16178 45.5235L4.66094 48.2269L7.02367 47.793L7.15678 48.4939L2.03199 49.4618Z" fill="black" fill-opacity="0.2"/>
<path d="M1.00036 36.4786C1.13347 34.8098 2.53114 34.1089 3.96209 34.2091C5.39304 34.3092 6.62432 35.2771 6.45793 36.9458C6.32482 38.6146 4.92715 39.3154 3.4962 39.2153C2.09853 39.1152 0.867251 38.1473 1.00036 36.4786ZM5.89221 36.9124C5.99204 35.6442 4.96043 35.0101 3.89554 34.9099C2.83065 34.8098 1.6992 35.2437 1.59936 36.5119C1.49953 37.7802 2.53114 38.4143 3.59604 38.5144C4.62765 38.6479 5.7591 38.2141 5.89221 36.9124Z" fill="#1B3B36"/>
<path d="M1.00036 36.4786C1.13347 34.8098 2.53114 34.1089 3.96209 34.2091C5.39304 34.3092 6.62432 35.2771 6.45793 36.9458C6.32482 38.6146 4.92715 39.3154 3.4962 39.2153C2.09853 39.1152 0.867251 38.1473 1.00036 36.4786ZM5.89221 36.9124C5.99204 35.6442 4.96043 35.0101 3.89554 34.9099C2.83065 34.8098 1.6992 35.2437 1.59936 36.5119C1.49953 37.7802 2.53114 38.4143 3.59604 38.5144C4.62765 38.6479 5.7591 38.2141 5.89221 36.9124Z" fill="black" fill-opacity="0.2"/>
<path d="M3.79607 26.9338L3.19707 28.5692L2.63135 28.3689L4.0623 24.4307L4.62802 24.6309L4.02902 26.2663L8.38842 27.8683L8.15547 28.5358L3.79607 26.9338Z" fill="#1B3B36"/>
<path d="M3.79607 26.9338L3.19707 28.5692L2.63135 28.3689L4.0623 24.4307L4.62802 24.6309L4.02902 26.2663L8.38842 27.8683L8.15547 28.5358L3.79607 26.9338Z" fill="black" fill-opacity="0.2"/>
<path d="M6.82251 19.1573L8.81918 16.1536L9.31835 16.4873L7.68773 18.9237L9.05213 19.8582L10.5496 17.5887L11.0488 17.9224L9.5513 20.1919L11.0488 21.1932L12.6794 18.7568L13.1786 19.0906L11.1486 22.1277L6.82251 19.1573Z" fill="#1B3B36"/>
<path d="M6.82251 19.1573L8.81918 16.1536L9.31835 16.4873L7.68773 18.9237L9.05213 19.8582L10.5496 17.5887L11.0488 17.9224L9.5513 20.1919L11.0488 21.1932L12.6794 18.7568L13.1786 19.0906L11.1486 22.1277L6.82251 19.1573Z" fill="black" fill-opacity="0.2"/>
<path d="M12.915 11.4472L13.4142 10.98L16.5423 14.4176L18.5723 12.5486L18.9716 12.9825L16.4092 15.3187L12.915 11.4472Z" fill="#1B3B36"/>
<path d="M12.915 11.4472L13.4142 10.98L16.5423 14.4176L18.5723 12.5486L18.9716 12.9825L16.4092 15.3187L12.915 11.4472Z" fill="black" fill-opacity="0.2"/>
</svg>
