<svg width="150" height="150" viewBox="0 0 150 150" fill="none" xmlns="http://www.w3.org/2000/svg">
<path opacity="0.32" d="M31.2251 14.7491L75 0.525732L118.775 14.7491L145.829 51.9862V98.0138L118.775 135.251L75 149.474L31.2251 135.251L4.17076 98.0138V51.9862L31.2251 14.7491Z" stroke="#FFFCF6"/>
<path d="M84 102.75C84 102.75 81.375 103.5 79.125 105.75C76.875 108 75 111.75 75 111.75C75 111.75 73.125 108 70.875 105.75C68.625 103.5 66 102.75 66 102.75" stroke="#FCD043" stroke-width="2"/>
<path d="M55.054 40.374H57.812C58.806 40.374 59.772 40.64 59.772 41.886C59.772 42.6 59.408 43.86 57.308 43.86H54.312L55.054 40.374ZM51.848 49.25H53.178L54.074 44.98H57.028C57.602 44.98 58.946 44.728 58.526 47.108C58.33 48.13 58.372 48.886 58.498 49.25H59.884C59.478 48.452 59.814 47.598 59.87 46.688C59.968 45.68 59.716 44.784 58.848 44.518V44.49C60.178 44.294 61.102 43.132 61.102 41.802C61.102 39.828 59.506 39.254 57.812 39.254H53.962L51.848 49.25ZM62.762 46.38C62.762 44.882 63.714 42.894 65.534 42.894C66.836 42.894 67.438 43.804 67.438 44.938C67.438 46.366 66.486 48.368 64.75 48.368C63.448 48.368 62.762 47.57 62.762 46.38ZM61.572 46.394C61.572 48.144 62.72 49.418 64.624 49.418C67.158 49.418 68.628 47.206 68.628 44.84C68.628 42.908 67.55 41.844 65.618 41.844C63.084 41.844 61.572 44.028 61.572 46.394ZM70.801 46.38C70.801 44.882 71.753 42.894 73.573 42.894C74.875 42.894 75.477 43.804 75.477 44.938C75.477 46.366 74.525 48.368 72.789 48.368C71.487 48.368 70.801 47.57 70.801 46.38ZM69.611 46.394C69.611 48.144 70.759 49.418 72.663 49.418C75.197 49.418 76.667 47.206 76.667 44.84C76.667 42.908 75.589 41.844 73.657 41.844C71.123 41.844 69.611 44.028 69.611 46.394ZM77.3421 49.25H78.5321L79.3441 45.456C79.4981 44.742 79.6101 44.308 80.1141 43.818C80.5341 43.342 81.2341 42.894 81.8921 42.894C82.5361 42.894 82.9001 43.244 82.9001 43.846C82.9001 44.014 82.8021 44.56 82.6761 45.12L81.8081 49.25H82.9981L83.7961 45.512C83.9221 44.896 84.0761 44.308 84.4681 43.888C84.8741 43.37 85.6161 42.894 86.2881 42.894C86.9181 42.894 87.3941 43.314 87.3941 43.874C87.3941 44.084 87.3381 44.434 87.2821 44.658L86.2741 49.25H87.4641L88.3741 44.91C88.4721 44.504 88.5841 43.888 88.5841 43.468C88.5841 42.292 87.5901 41.844 86.5681 41.844C85.6021 41.844 84.6501 42.376 84.0901 43.146C83.8801 42.208 83.1801 41.844 82.2701 41.844C81.2761 41.844 80.3661 42.362 79.7501 43.118L79.7221 43.09L79.9881 42.012H78.8821L77.3421 49.25ZM95.494 44.14C95.494 42.446 94.108 41.844 92.764 41.844C91.42 41.844 90.076 42.586 90.076 43.93C90.076 45.022 91.028 45.512 91.994 45.89C92.946 46.282 93.898 46.562 93.898 47.262C93.898 48.088 93.016 48.368 92.246 48.368C91.252 48.368 90.342 48.046 90.398 46.968H89.208C89.194 48.816 90.482 49.418 92.134 49.418C93.534 49.418 95.088 48.788 95.088 47.178C95.088 46.044 94.122 45.54 93.17 45.148C92.218 44.756 91.266 44.49 91.266 43.818C91.266 43.09 92.078 42.894 92.806 42.894C93.632 42.894 94.36 43.314 94.304 44.14H95.494Z" fill="#FCD043"/>
<path d="M72.876 59.48C72.876 60.138 72.232 61.118 70.664 61.118C69.936 61.118 69.264 60.838 69.264 60.054C69.264 59.172 69.936 58.892 70.72 58.752C71.518 58.612 72.414 58.598 72.876 58.262V59.48ZM74.808 61.048C74.654 61.104 74.542 61.118 74.444 61.118C74.066 61.118 74.066 60.866 74.066 60.306V56.582C74.066 54.888 72.652 54.594 71.35 54.594C69.74 54.594 68.354 55.224 68.284 57.016H69.474C69.53 55.952 70.272 55.644 71.28 55.644C72.036 55.644 72.89 55.812 72.89 56.848C72.89 57.744 71.77 57.66 70.454 57.912C69.222 58.15 68.004 58.5 68.004 60.138C68.004 61.58 69.082 62.168 70.398 62.168C71.406 62.168 72.288 61.818 72.946 61.048C72.946 61.832 73.338 62.168 73.954 62.168C74.332 62.168 74.598 62.098 74.808 61.972V61.048ZM75.9155 62H77.1055V57.912C77.1055 56.61 77.8055 55.644 79.2475 55.644C80.1575 55.644 80.7175 56.218 80.7175 57.1V62H81.9075V57.24C81.9075 55.686 81.3195 54.594 79.4155 54.594C78.3795 54.594 77.5675 55.014 77.0635 55.91H77.0355V54.762H75.9155V62ZM90.1628 52.004H88.9728V55.728H88.9448C88.4128 54.874 87.3488 54.594 86.6068 54.594C84.3948 54.594 83.3028 56.316 83.3028 58.36C83.3028 60.404 84.4088 62.168 86.6348 62.168C87.6288 62.168 88.5528 61.818 88.9448 61.02H88.9728V62H90.1628V52.004ZM84.5628 58.444C84.5628 57.03 85.1088 55.644 86.7328 55.644C88.3708 55.644 89.0148 56.96 89.0148 58.388C89.0148 59.746 88.3988 61.118 86.8028 61.118C85.2628 61.118 84.5628 59.802 84.5628 58.444Z" fill="#FFFCF6"/>
<path d="M57.126 72.23C57.126 72.888 56.482 73.868 54.914 73.868C54.186 73.868 53.514 73.588 53.514 72.804C53.514 71.922 54.186 71.642 54.97 71.502C55.768 71.362 56.664 71.348 57.126 71.012V72.23ZM59.058 73.798C58.904 73.854 58.792 73.868 58.694 73.868C58.316 73.868 58.316 73.616 58.316 73.056V69.332C58.316 67.638 56.902 67.344 55.6 67.344C53.99 67.344 52.604 67.974 52.534 69.766H53.724C53.78 68.702 54.522 68.394 55.53 68.394C56.286 68.394 57.14 68.562 57.14 69.598C57.14 70.494 56.02 70.41 54.704 70.662C53.472 70.9 52.254 71.25 52.254 72.888C52.254 74.33 53.332 74.918 54.648 74.918C55.656 74.918 56.538 74.568 57.196 73.798C57.196 74.582 57.588 74.918 58.204 74.918C58.582 74.918 58.848 74.848 59.058 74.722V73.798ZM65.8075 71.068C65.8075 72.482 65.2615 73.868 63.6375 73.868C61.9995 73.868 61.3555 72.552 61.3555 71.124C61.3555 69.766 61.9715 68.394 63.5675 68.394C65.1075 68.394 65.8075 69.71 65.8075 71.068ZM60.2075 77.522H61.3975V73.784H61.4255C61.9575 74.638 63.0215 74.918 63.7635 74.918C65.9755 74.918 67.0675 73.196 67.0675 71.152C67.0675 69.108 65.9615 67.344 63.7355 67.344C62.7415 67.344 61.8175 67.694 61.4255 68.492H61.3975V67.512H60.2075V77.522ZM72.9444 72.23C72.9444 72.888 72.3004 73.868 70.7324 73.868C70.0044 73.868 69.3324 73.588 69.3324 72.804C69.3324 71.922 70.0044 71.642 70.7884 71.502C71.5864 71.362 72.4824 71.348 72.9444 71.012V72.23ZM74.8764 73.798C74.7224 73.854 74.6104 73.868 74.5124 73.868C74.1344 73.868 74.1344 73.616 74.1344 73.056V69.332C74.1344 67.638 72.7204 67.344 71.4184 67.344C69.8084 67.344 68.4224 67.974 68.3524 69.766H69.5424C69.5984 68.702 70.3404 68.394 71.3484 68.394C72.1044 68.394 72.9584 68.562 72.9584 69.598C72.9584 70.494 71.8384 70.41 70.5224 70.662C69.2904 70.9 68.0724 71.25 68.0724 72.888C68.0724 74.33 69.1504 74.918 70.4664 74.918C71.4744 74.918 72.3564 74.568 73.0144 73.798C73.0144 74.582 73.4064 74.918 74.0224 74.918C74.4004 74.918 74.6664 74.848 74.8764 74.722V73.798ZM75.9419 74.75H77.1319V71.53C77.1319 69.696 77.8319 68.604 79.7499 68.604V67.344C78.4619 67.302 77.6639 67.876 77.0899 69.038H77.0619V67.512H75.9419V74.75ZM82.298 65.342H81.108V67.512H79.876V68.562H81.108V73.168C81.108 74.498 81.598 74.75 82.83 74.75H83.74V73.7H83.194C82.452 73.7 82.298 73.602 82.298 73.056V68.562H83.74V67.512H82.298V65.342ZM85.062 74.75H86.252V70.242C86.252 69.696 86.77 68.394 88.184 68.394C89.248 68.394 89.542 69.066 89.542 70.004V74.75H90.732V70.242C90.732 69.122 91.474 68.394 92.622 68.394C93.784 68.394 94.022 69.108 94.022 70.004V74.75H95.212V69.444C95.212 67.946 94.246 67.344 92.804 67.344C91.88 67.344 91.026 67.806 90.536 68.576C90.242 67.694 89.43 67.344 88.548 67.344C87.554 67.344 86.742 67.764 86.21 68.576H86.182V67.512H85.062V74.75ZM101.996 72.454C101.786 73.392 101.1 73.868 100.12 73.868C98.5376 73.868 97.8236 72.748 97.8656 71.488H103.284C103.354 69.738 102.57 67.344 100.008 67.344C98.0336 67.344 96.6056 68.94 96.6056 71.11C96.6756 73.322 97.7676 74.918 100.078 74.918C101.702 74.918 102.85 74.05 103.172 72.454H101.996ZM97.8656 70.438C97.9496 69.332 98.6916 68.394 99.9376 68.394C101.114 68.394 101.968 69.304 102.024 70.438H97.8656ZM104.517 74.75H105.707V70.662C105.707 69.36 106.407 68.394 107.849 68.394C108.759 68.394 109.319 68.968 109.319 69.85V74.75H110.509V69.99C110.509 68.436 109.921 67.344 108.017 67.344C106.981 67.344 106.169 67.764 105.665 68.66H105.637V67.512H104.517V74.75ZM113.948 65.342H112.758V67.512H111.526V68.562H112.758V73.168C112.758 74.498 113.248 74.75 114.48 74.75H115.39V73.7H114.844C114.102 73.7 113.948 73.602 113.948 73.056V68.562H115.39V67.512H113.948V65.342ZM116.25 72.468C116.32 74.26 117.692 74.918 119.316 74.918C120.786 74.918 122.396 74.358 122.396 72.636C122.396 71.236 121.22 70.844 120.03 70.578C118.924 70.312 117.664 70.172 117.664 69.318C117.664 68.59 118.49 68.394 119.204 68.394C119.988 68.394 120.8 68.688 120.884 69.612H122.074C121.976 67.848 120.702 67.344 119.106 67.344C117.846 67.344 116.404 67.946 116.404 69.402C116.404 70.788 117.594 71.18 118.77 71.446C119.96 71.712 121.136 71.866 121.136 72.79C121.136 73.7 120.128 73.868 119.386 73.868C118.406 73.868 117.482 73.532 117.44 72.468H116.25Z" fill="#FFFCF6"/>
</svg>
